<?xml version="1.0" encoding="UTF-8"?>
<svg xmlns="http://www.w3.org/2000/svg" xmlns:xlink="http://www.w3.org/1999/xlink" width="64pt" height="64pt" viewBox="0 0 64 64" version="1.1">
<g id="surface6385511">
<rect x="0" y="0" width="64" height="64" style="fill:rgb(100%,100%,100%);fill-opacity:1;stroke:none;"/>
<path style=" stroke:none;fill-rule:nonzero;fill:rgb(100%,38.82353%,27.843139%);fill-opacity:1;" d="M 0.988281 32 C 0.988281 14.875 14.875 0.988281 32 0.988281 C 49.125 0.988281 63.011719 14.875 63.011719 32 C 63.011719 49.125 49.125 63.011719 32 63.011719 C 14.875 63.011719 0.988281 49.125 0.988281 32 Z M 0.988281 32 "/>
<path style=" stroke:none;fill-rule:nonzero;fill:rgb(100%,100%,100%);fill-opacity:1;" d="M 16.710938 30.023438 L 47.289062 30.023438 L 47.289062 50 L 16.710938 50 Z M 16.710938 30.023438 "/>
<path style=" stroke:none;fill-rule:nonzero;fill:rgb(100%,100%,100%);fill-opacity:1;" d="M 43.710938 42.511719 C 42.75 42.511719 41.960938 41.726562 41.960938 40.761719 L 41.960938 23.761719 C 41.960938 18.261719 37.488281 13.789062 31.988281 13.789062 C 26.488281 13.789062 22.011719 18.261719 22.011719 23.761719 L 22.011719 40.761719 C 22.011719 41.726562 21.226562 42.511719 20.261719 42.511719 C 19.300781 42.511719 18.511719 41.726562 18.511719 40.761719 L 18.511719 23.761719 C 18.511719 16.335938 24.550781 10.300781 31.976562 10.300781 C 39.398438 10.300781 45.4375 16.335938 45.4375 23.761719 L 45.4375 40.761719 C 45.460938 41.738281 44.675781 42.511719 43.710938 42.511719 Z M 43.710938 42.511719 "/>
<path style=" stroke:none;fill-rule:nonzero;fill:rgb(100%,38.82353%,27.843139%);fill-opacity:1;" d="M 35.324219 38.664062 C 35.324219 36.824219 33.835938 35.335938 32 35.335938 C 30.164062 35.335938 28.675781 36.824219 28.675781 38.664062 C 28.675781 39.835938 29.273438 40.863281 30.1875 41.449219 C 30.1875 41.976562 30.1875 42.625 30.1875 42.886719 C 30.1875 43.886719 31 44.699219 32 44.699219 C 33 44.699219 33.8125 43.886719 33.8125 42.886719 C 33.8125 42.636719 33.8125 41.988281 33.8125 41.449219 C 34.726562 40.863281 35.324219 39.824219 35.324219 38.664062 Z M 35.324219 38.664062 "/>
</g>
</svg>
