<?xml version="1.0" standalone="no"?>
<!DOCTYPE svg PUBLIC "-//W3C//DTD SVG 20010904//EN"
 "http://www.w3.org/TR/2001/REC-SVG-20010904/DTD/svg10.dtd">
<svg version="1.0" xmlns="http://www.w3.org/2000/svg"
 width="300.000000pt" height="300.000000pt" viewBox="0 0 300.000000 300.000000"
 preserveAspectRatio="xMidYMid meet">
<metadata>
Created by potrace 1.11, written by Peter Selinger 2001-2013
</metadata>
<g transform="translate(0.000000,300.000000) scale(0.100000,-0.100000)"
fill="#000000" stroke="none">
<path d="M1370 2724 c-14 -2 -56 -9 -95 -15 -162 -26 -359 -112 -500 -216
-248 -184 -411 -437 -482 -745 -23 -102 -23 -384 0 -486 112 -491 468 -847
959 -959 102 -23 384 -23 486 0 491 112 847 468 959 959 12 53 16 120 16 243
0 123 -4 190 -16 243 -112 491 -476 854 -959 958 -70 15 -316 27 -368 18z
m205 -936 c24 -24 143 -146 264 -271 199 -205 221 -232 221 -262 0 -24 -7 -39
-26 -54 -54 -43 -61 -38 -306 214 l-229 234 -226 -229 c-204 -208 -229 -230
-259 -230 -38 0 -74 37 -74 77 0 18 65 91 256 288 141 145 261 266 268 269 36
15 69 4 111 -36z"/>
</g>
</svg>
